<?xml version="1.0" encoding="UTF-8" standalone="no"?>
<svg
   xmlns:dc="http://purl.org/dc/elements/1.1/"
   xmlns:cc="http://creativecommons.org/ns#"
   xmlns:rdf="http://www.w3.org/1999/02/22-rdf-syntax-ns#"
   xmlns:svg="http://www.w3.org/2000/svg"
   xmlns="http://www.w3.org/2000/svg"
   viewBox="0 0 612.25201 355.67068"
   height="355.67068"
   width="612.25201"
   xml:space="preserve"
   id="svg2"
   version="1.1"><metadata
     id="metadata8"><rdf:RDF><cc:Work
         rdf:about=""><dc:format>image/svg+xml</dc:format><dc:type
           rdf:resource="http://purl.org/dc/dcmitype/StillImage" /></cc:Work></rdf:RDF></metadata><defs
     id="defs6"><clipPath
       id="clipPath18"
       clipPathUnits="userSpaceOnUse"><path
         id="path16"
         d="M 0,266.753 H 459.189 V 0 H 0 Z" /></clipPath></defs><g
     transform="matrix(1.3333333,0,0,-1.3333333,0,355.67067)"
     id="g10"><g
       id="g12"><g
         clip-path="url(#clipPath18)"
         id="g14"><g
           transform="translate(267.2089,175.1109)"
           id="g20"><path
             id="path22"
             style="fill:#ffffff;fill-opacity:1;fill-rule:nonzero;stroke:none"
             d="m 0,0 18.057,-45.552 -142.234,-56.38 -18.056,45.552 z m 76.679,27.414 c 0.001,0 0.001,0 0,0 l 38.307,-8.189 -22.293,-32.211 c -1.859,-2.688 -4.448,-4.744 -7.487,-5.949 L 32.001,-40.025 13.944,5.527 67.15,26.617 c 3.039,1.205 6.334,1.481 9.529,0.797 m -303.321,-153.08 -6.377,16.089 82.737,32.796 6.264,-15.804 z m 58.857,93.042 8.844,-22.311 3.131,-7.902 -82.736,-32.796 -5.976,15.074 c -1.413,3.565 -5.237,5.74 -8.946,4.767 -4.445,-1.166 -6.743,-5.891 -5.103,-10.029 l 29.375,-74.107 c 1.413,-3.564 5.237,-5.738 8.946,-4.765 4.444,1.166 6.744,5.889 5.103,10.029 l -5.712,14.409 82.625,33.078 2.876,-7.255 8.739,-22.047 c 1.413,-3.564 5.238,-5.738 8.946,-4.765 4.445,1.166 6.744,5.89 5.103,10.029 l -6.08,15.339 209.383,82.997 c 5.801,2.299 10.745,6.227 14.294,11.357 l 27.404,39.593 49.684,19.695 c 3.565,1.413 5.739,5.239 4.765,8.948 -1.168,4.444 -5.892,6.741 -10.028,5.1 L 126.903,32.016 79.816,42.082 c -6.1,1.305 -12.391,0.779 -18.192,-1.52 l -209.385,-82.998 -5.975,15.075 c -1.413,3.565 -5.238,5.739 -8.946,4.766 -4.445,-1.166 -6.744,-5.89 -5.103,-10.029" /></g><g
           transform="translate(445.9667,220.4205)"
           id="g24"><path
             id="path26"
             style="fill:#ffffff;fill-opacity:1;fill-rule:nonzero;stroke:#ffffff;stroke-width:15;stroke-linecap:butt;stroke-linejoin:miter;stroke-miterlimit:10;stroke-dasharray:none;stroke-opacity:1"
             d="M 0,0 -60.362,26.093" /></g><g
           transform="translate(420.7949,157.7335)"
           id="g28"><path
             id="path30"
             style="fill:#ffffff;fill-opacity:1;fill-rule:nonzero;stroke:#ffffff;stroke-width:15;stroke-linecap:butt;stroke-linejoin:miter;stroke-miterlimit:10;stroke-dasharray:none;stroke-opacity:1"
             d="M 0,0 26.093,60.363" /></g></g></g></g></svg>