<svg id="Laag_1" data-name="Laag 1" xmlns="http://www.w3.org/2000/svg" viewBox="0 0 1893.4 1683.37"><defs><style>.cls-1{fill:#4c005e;}</style></defs><title>trusted-p</title><g id="Logo"><path class="cls-1" d="M874.66,1767.19a124.77,124.77,0,0,0,88.41,36.68,126.4,126.4,0,0,0,88.42-36.68l693.81-693.81C1850.7,968,1908.61,827.83,1909,679.18c0-149-57.91-289.18-163.32-394.59s-245.17-163.31-394.2-163.31c-146.33,0-284.16,56-388.79,157.91-105-102.32-243.24-158.69-390-158.69-148.64,0-288.41,57.92-393.81,162.93C73.51,388.84,15.6,529,15.6,678c0,148.65,58.3,288.8,163.7,394.2ZM246.1,350.61c87.25-87.25,203.47-135.51,327-135.51S813.27,263.36,900.91,351l28.57,28.57a47.32,47.32,0,0,0,33.59,13.9h0a48,48,0,0,0,33.59-13.9l27.8-27.8c87.64-87.64,203.86-135.9,327.79-135.9,123.55,0,239.77,48.26,327,135.52,87.65,87.64,135.52,203.85,135.52,327.4s-48.26,239.77-135.9,327.41l-694.2,694.2c-11.19,11.19-31.66,11.19-43.24,0l-695-695C158.84,917.79,110.58,801.57,110.58,678S158.84,438.26,246.1,350.61Z" transform="translate(-15.6 -120.5)"/><path class="cls-1" d="M1026.1,349S316.15,1099,55.94,768.7l40.71-92.61S237.08,946.74,976.84,309.38Z" transform="translate(-15.6 -120.5)"/></g></svg>